<svg width="60" height="58" viewBox="0 0 60 58" fill="none" xmlns="http://www.w3.org/2000/svg">
<path d="M27.883 2.62217L28.3883 3.4851L27.883 2.62217ZM29.0794 2.03766L28.869 1.06002L29.0794 2.03766ZM31.1171 2.62217L30.6117 3.48509L31.1171 2.62217ZM29.9207 2.03766L30.131 1.06002L29.9207 2.03766ZM2.46156 20.4168L1.75576 21.1252L2.46156 20.4168ZM6.67999 15.0386L6.17466 14.1756L6.67999 15.0386ZM1.93909 18.4906L0.972053 18.236L1.93909 18.4906ZM56.5385 20.4168L57.2443 21.1252L56.5385 20.4168ZM52.32 15.0386L52.8254 14.1756L52.32 15.0386ZM57.0609 18.4906L58.028 18.236L57.0609 18.4906ZM3.59203 55.7959L4.04602 54.9049L3.59203 55.7959ZM2.718 54.9218L3.609 54.4678L2.718 54.9218ZM58.282 54.9218L57.391 54.4678L58.282 54.9218ZM57.408 55.7959L56.954 54.9049L57.408 55.7959ZM57.408 49.2179L56.954 50.1089L57.408 49.2179ZM58.282 50.092L57.391 50.5459L58.282 50.092ZM3.59203 49.2179L4.04602 50.1089L3.59203 49.2179ZM2.718 50.092L3.609 50.5459L2.718 50.092ZM12.5 26.9999C12.5 26.4477 12.0523 25.9999 11.5 25.9999C10.9477 25.9999 10.5 26.4477 10.5 26.9999H12.5ZM10.5 42.9999C10.5 43.5522 10.9477 43.9999 11.5 43.9999C12.0523 43.9999 12.5 43.5522 12.5 42.9999H10.5ZM36.5 26.9999C36.5 26.4477 36.0523 25.9999 35.5 25.9999C34.9477 25.9999 34.5 26.4477 34.5 26.9999H36.5ZM34.5 42.9999C34.5 43.5522 34.9477 43.9999 35.5 43.9999C36.0523 43.9999 36.5 43.5522 36.5 42.9999H34.5ZM24.5 26.9999C24.5 26.4477 24.0523 25.9999 23.5 25.9999C22.9477 25.9999 22.5 26.4477 22.5 26.9999H24.5ZM22.5 42.9999C22.5 43.5522 22.9477 43.9999 23.5 43.9999C24.0523 43.9999 24.5 43.5522 24.5 42.9999H22.5ZM48.5 26.9999C48.5 26.4477 48.0523 25.9999 47.5 25.9999C46.9477 25.9999 46.5 26.4477 46.5 26.9999H48.5ZM46.5 42.9999C46.5 43.5522 46.9477 43.9999 47.5 43.9999C48.0523 43.9999 48.5 43.5522 48.5 42.9999H46.5ZM50.703 19.9999H8.29704V21.9999H50.703V19.9999ZM7.18532 15.9015L28.3883 3.4851L27.3776 1.75924L6.17466 14.1756L7.18532 15.9015ZM30.6117 3.48509L51.8147 15.9015L52.8254 14.1756L31.6224 1.75924L30.6117 3.48509ZM28.3883 3.4851C29.0361 3.10576 29.1702 3.04099 29.2897 3.01529L28.869 1.06002C28.3617 1.16917 27.9072 1.44912 27.3776 1.75924L28.3883 3.4851ZM31.6224 1.75924C31.0928 1.44912 30.6383 1.16917 30.131 1.06002L29.7103 3.01529C29.8298 3.04099 29.964 3.10576 30.6117 3.48509L31.6224 1.75924ZM29.2897 3.01529C29.4283 2.98546 29.5717 2.98546 29.7103 3.01529L30.131 1.06002C29.7151 0.970552 29.2849 0.970552 28.869 1.06002L29.2897 3.01529ZM8.29704 19.9999C6.52907 19.9999 5.26333 19.9992 4.36292 19.93C3.91467 19.8955 3.60342 19.847 3.3909 19.7891C3.17198 19.7294 3.1405 19.6816 3.16735 19.7083L1.75576 21.1252C2.07528 21.4435 2.48206 21.6144 2.86527 21.7188C3.25489 21.8249 3.70966 21.8857 4.20961 21.9241C5.20558 22.0007 6.56491 21.9999 8.29704 21.9999V19.9999ZM6.17466 14.1756C4.67996 15.0509 3.50658 15.7372 2.68583 16.3066C2.27384 16.5924 1.91211 16.8746 1.62953 17.1631C1.35159 17.4468 1.08691 17.7998 0.972053 18.236L2.90612 18.7453C2.89647 18.7819 2.89946 18.7248 3.05824 18.5627C3.21237 18.4053 3.45641 18.2061 3.8258 17.9499C4.56782 17.4351 5.65969 16.7949 7.18532 15.9015L6.17466 14.1756ZM3.16735 19.7083C2.91489 19.4568 2.81537 19.0899 2.90612 18.7453L0.972053 18.236C0.699793 19.2699 0.998355 20.3706 1.75576 21.1252L3.16735 19.7083ZM50.703 21.9999C52.4351 21.9999 53.7944 22.0007 54.7904 21.9241C55.2904 21.8857 55.7451 21.8249 56.1348 21.7188C56.518 21.6144 56.9247 21.4435 57.2443 21.1252L55.8327 19.7083C55.8595 19.6816 55.828 19.7294 55.6091 19.7891C55.3966 19.847 55.0854 19.8955 54.6371 19.93C53.7367 19.9992 52.4709 19.9999 50.703 19.9999V21.9999ZM51.8147 15.9015C53.3403 16.7949 54.4322 17.4351 55.1742 17.9499C55.5436 18.2061 55.7877 18.4053 55.9418 18.5627C56.1006 18.7248 56.1036 18.7819 56.0939 18.7453L58.028 18.236C57.9131 17.7998 57.6484 17.4468 57.3705 17.1631C57.0879 16.8746 56.7262 16.5924 56.3142 16.3066C55.4934 15.7372 54.3201 15.0509 52.8254 14.1756L51.8147 15.9015ZM57.2443 21.1252C58.0017 20.3706 58.3002 19.2699 58.028 18.236L56.0939 18.7453C56.1847 19.0899 56.0851 19.4568 55.8327 19.7083L57.2443 21.1252ZM5.70001 49.9999H55.3V47.9999H5.70001V49.9999ZM57.5 52.1999V52.8139H59.5V52.1999H57.5ZM55.3 55.0139H5.70001V57.0139H55.3V55.0139ZM3.50001 52.8139V52.1999H1.50001V52.8139H3.50001ZM5.70001 55.0139C5.12346 55.0139 4.75118 55.0131 4.46785 54.9899C4.19618 54.9677 4.09546 54.93 4.04602 54.9049L3.13804 56.6869C3.51642 56.8797 3.90964 56.951 4.30498 56.9833C4.68865 57.0146 5.15646 57.0139 5.70001 57.0139V55.0139ZM1.50001 52.8139C1.50001 53.3574 1.49923 53.8252 1.53058 54.2089C1.56288 54.6042 1.6342 54.9974 1.82699 55.3758L3.609 54.4678C3.58381 54.4184 3.54613 54.3177 3.52394 54.046C3.50079 53.7627 3.50001 53.3904 3.50001 52.8139H1.50001ZM4.04602 54.9049C3.85786 54.809 3.70488 54.656 3.609 54.4678L1.82699 55.3758C2.11461 55.9403 2.57355 56.3993 3.13804 56.6869L4.04602 54.9049ZM57.5 52.8139C57.5 53.3904 57.4992 53.7627 57.4761 54.046C57.4539 54.3177 57.4162 54.4184 57.391 54.4678L59.173 55.3758C59.3658 54.9974 59.4371 54.6042 59.4694 54.2089C59.5008 53.8252 59.5 53.3574 59.5 52.8139H57.5ZM55.3 57.0139C55.8436 57.0139 56.3114 57.0146 56.695 56.9833C57.0904 56.951 57.4836 56.8797 57.862 56.6869L56.954 54.9049C56.9046 54.93 56.8038 54.9677 56.5322 54.9899C56.2488 55.0131 55.8766 55.0139 55.3 55.0139V57.0139ZM57.391 54.4678C57.2951 54.656 57.1422 54.809 56.954 54.9049L57.862 56.6869C58.4265 56.3993 58.8854 55.9403 59.173 55.3758L57.391 54.4678ZM55.3 49.9999C55.8766 49.9999 56.2488 50.0007 56.5322 50.0239C56.8038 50.0461 56.9046 50.0837 56.954 50.1089L57.862 48.3269C57.4836 48.1341 57.0904 48.0628 56.695 48.0305C56.3114 47.9992 55.8436 47.9999 55.3 47.9999V49.9999ZM59.5 52.1999C59.5 51.6564 59.5008 51.1886 59.4694 50.8049C59.4371 50.4096 59.3658 50.0163 59.173 49.638L57.391 50.5459C57.4162 50.5954 57.4539 50.6961 57.4761 50.9678C57.4992 51.2511 57.5 51.6234 57.5 52.1999H59.5ZM56.954 50.1089C57.1422 50.2048 57.2951 50.3578 57.391 50.5459L59.173 49.638C58.8854 49.0735 58.4265 48.6145 57.862 48.3269L56.954 50.1089ZM5.70001 47.9999C5.15646 47.9999 4.68865 47.9992 4.30498 48.0305C3.90964 48.0628 3.51642 48.1341 3.13804 48.3269L4.04602 50.1089C4.09546 50.0837 4.19618 50.0461 4.46785 50.0239C4.75118 50.0007 5.12346 49.9999 5.70001 49.9999V47.9999ZM3.50001 52.1999C3.50001 51.6234 3.50079 51.2511 3.52394 50.9678C3.54613 50.6961 3.58381 50.5954 3.609 50.5459L1.82699 49.638C1.6342 50.0163 1.56288 50.4096 1.53058 50.8049C1.49923 51.1886 1.50001 51.6564 1.50001 52.1999H3.50001ZM3.13804 48.3269C2.57355 48.6145 2.11461 49.0735 1.82699 49.638L3.609 50.5459C3.70488 50.3578 3.85786 50.2048 4.04602 50.1089L3.13804 48.3269ZM10.5 26.9999V42.9999H12.5V26.9999H10.5ZM34.5 26.9999V42.9999H36.5V26.9999H34.5ZM22.5 26.9999V42.9999H24.5V26.9999H22.5ZM46.5 26.9999V42.9999H48.5V26.9999H46.5Z" fill="#AD2D11"/>
</svg>
